<?xml version="1.0" standalone="no"?>
<!DOCTYPE svg PUBLIC "-//W3C//DTD SVG 20010904//EN"
 "http://www.w3.org/TR/2001/REC-SVG-20010904/DTD/svg10.dtd">
<svg version="1.0" xmlns="http://www.w3.org/2000/svg"
 width="900.000000pt" height="378.000000pt" viewBox="0 0 900.000000 378.000000"
 preserveAspectRatio="xMidYMid meet">

<g transform="translate(0.000000,378.000000) scale(0.100000,-0.100000)"
fill="#000000" stroke="none">
<path d="M3641 2404 c-70 -15 -93 -28 -159 -88 -84 -76 -113 -194 -81 -322 21
-83 123 -157 311 -224 151 -54 192 -111 164 -225 -26 -103 -194 -153 -312 -92
-64 33 -116 92 -157 180 -30 63 -55 84 -71 58 -9 -14 32 -264 44 -271 6 -4 66
-19 132 -35 195 -44 294 -27 398 71 180 169 165 410 -32 510 -28 14 -91 41
-141 60 -166 63 -201 94 -201 176 0 59 24 94 85 126 54 29 130 26 202 -8 60
-29 133 -115 149 -177 12 -48 30 -62 53 -43 12 10 15 40 15 147 l0 135 -27 -7
c-48 -13 -106 -9 -163 12 -78 28 -135 33 -209 17z"/>
<path d="M5448 2409 c-171 -22 -313 -108 -404 -244 -77 -115 -122 -335 -94
-456 40 -171 177 -302 355 -339 151 -31 345 20 479 128 87 71 145 162 102 162
-8 0 -41 -23 -73 -51 -63 -56 -177 -115 -245 -127 -150 -27 -280 42 -344 183
-79 171 -37 455 85 588 61 66 125 91 236 92 79 0 96 -3 141 -27 63 -33 139
-115 183 -197 18 -34 38 -60 44 -58 16 5 22 306 7 321 -7 7 -19 1 -38 -17 -15
-15 -35 -27 -43 -27 -8 0 -51 13 -95 29 -43 16 -102 32 -129 36 -28 3 -61 8
-75 9 -14 2 -55 0 -92 -5z"/>
<path d="M1407 2388 c-8 -13 -133 -227 -278 -477 -204 -351 -271 -458 -293
-470 -40 -22 -68 -50 -61 -61 9 -14 362 -13 370 0 10 17 -13 38 -48 45 -57 12
-97 43 -97 75 0 48 32 128 67 170 l35 40 173 0 c201 0 206 -2 232 -90 28 -98
28 -138 2 -167 -13 -13 -39 -31 -57 -39 -19 -8 -32 -19 -30 -26 4 -10 97 -14
424 -16 230 -1 429 0 442 3 39 9 25 47 -20 58 -55 13 -88 57 -88 115 0 51 56
655 66 712 7 45 27 66 82 90 82 37 54 45 -169 48 -242 3 -272 0 -267 -31 2
-15 11 -23 28 -25 47 -6 78 -24 90 -52 9 -22 5 -102 -20 -391 -34 -397 -43
-437 -103 -469 -24 -13 -30 -13 -55 0 -33 19 -55 64 -121 250 -118 334 -267
724 -278 727 -7 3 -18 -6 -26 -19z m-64 -320 c40 -87 98 -250 93 -263 -4 -12
-30 -15 -133 -15 -70 0 -134 4 -142 9 -11 7 0 36 59 143 99 181 98 179 123
126z"/>
<path d="M2471 2391 c-23 -15 -7 -34 45 -50 86 -28 87 -46 41 -512 -36 -355
-39 -368 -101 -394 -38 -16 -60 -40 -51 -55 4 -6 119 -10 339 -10 266 0 340 3
367 14 69 29 128 117 144 212 9 55 -7 63 -42 22 -53 -61 -98 -99 -148 -122
-78 -38 -210 -56 -273 -39 -37 9 -42 41 -32 191 16 210 17 217 46 231 35 16
130 14 167 -4 33 -16 67 -64 67 -95 0 -9 6 -23 14 -29 22 -19 33 7 40 99 4 47
11 116 16 155 5 38 6 73 4 77 -12 19 -34 5 -56 -34 -38 -67 -66 -82 -165 -87
-47 -2 -89 1 -94 6 -8 8 -4 72 17 273 3 30 10 60 16 67 16 19 222 17 279 -2
52 -18 71 -43 79 -105 3 -32 10 -46 22 -48 22 -4 27 18 30 143 l3 100 -380 2
c-209 2 -386 -1 -394 -6z"/>
<path d="M4103 2389 c-19 -19 -3 -39 38 -45 21 -4 46 -15 56 -26 28 -31 28
-151 -1 -428 -14 -135 -28 -273 -30 -308 -7 -72 -26 -115 -61 -137 -14 -8 -37
-22 -51 -31 -20 -12 -23 -18 -13 -30 9 -12 67 -14 341 -14 362 0 367 1 427 62
53 55 101 194 73 212 -5 3 -37 -25 -73 -61 -35 -36 -81 -74 -103 -85 -46 -24
-155 -48 -216 -48 -107 0 -118 21 -101 188 25 256 23 252 126 252 91 0 120
-17 153 -90 39 -87 51 -71 62 86 6 71 12 146 15 167 8 54 -24 51 -50 -5 -29
-62 -85 -88 -187 -88 -42 0 -79 4 -82 9 -8 12 22 301 34 329 9 21 15 22 132
22 104 0 128 -3 166 -21 49 -24 51 -27 60 -95 6 -40 11 -49 27 -49 18 0 21 11
32 115 9 88 9 116 0 122 -20 13 -761 10 -774 -3z"/>
<path d="M5996 1428 c10 -14 21 -24 23 -22 3 3 -6 15 -18 27 l-24 22 19 -27z"/>
<path d="M5895 1419 c-4 -6 -5 -12 -2 -15 2 -3 7 2 10 11 7 17 1 20 -8 4z"/>
</g>
</svg>
